<?xml version="1.0" encoding="utf-8"?>
<!-- Generator: Adobe Illustrator 19.0.0, SVG Export Plug-In . SVG Version: 6.00 Build 0)  -->
<svg version="1.1" id="Layer_1" xmlns="http://www.w3.org/2000/svg" xmlns:xlink="http://www.w3.org/1999/xlink" x="0px" y="0px"
	 viewBox="0 0 500 500" style="enable-background:new 0 0 500 500;" xml:space="preserve">
<style type="text/css">
	.st0{fill:url(#XMLID_36_);}
	.st1{fill:#017BC2;}
	.st2{fill:#FFFFFF;}
	.st3{fill:#9A9AFF;}
	.st4{fill:#2674AE;}
</style>
<g id="XMLID_1_">
	
		<linearGradient id="XMLID_36_" gradientUnits="userSpaceOnUse" x1="3.927700e-002" y1="-5.524806e-003" x2="0.9355" y2="-5.524806e-003" gradientTransform="matrix(0 98.2279 -2988.3943 0 94.9935 202.1228)">
		<stop  offset="0" style="stop-color:#FFFFFF"/>
		<stop  offset="0.3627" style="stop-color:#017BC2"/>
		<stop  offset="0.6347" style="stop-color:#017BC2"/>
		<stop  offset="1" style="stop-color:#FFFFFF"/>
	</linearGradient>
	<path id="XMLID_3_" class="st0" d="M155.5,250c0,24.3-19.7,44-44,44c-24.3,0-44-19.7-44-44v0c0-24.3,19.7-44,44-44
		C135.8,206,155.5,225.7,155.5,250L155.5,250z"/>
	<path id="XMLID_6_" class="st1" d="M111.5,207.5C88,207.5,69,226.5,69,250c0,23.5,19,42.5,42.5,42.5c23.5,0,42.5-19,42.5-42.5
		C154,226.5,135,207.5,111.5,207.5z M111.5,209.7c18,0,32.5,18,32.5,40.3s-14.6,40.3-32.5,40.3c-18,0-32.5-18-32.5-40.3
		S93.5,209.7,111.5,209.7z"/>
	<path id="XMLID_7_" class="st2" d="M86.7,228l-6.4,42.2h13.1l3.7-23.5l9.2,16.8l14.1-16.8l-3.2,23.5H130c2.3-3.3,5-6.5,9.8-10.4
		c3.4-2.5,9.4-5.1,12.8-6.2c-7.8,0.4-10.1,1.7-13.5,2.9c-2.5,0.9-5.4,2.4-7.6,4.1l5.1-32.6h-14.8l-12.9,15.2l-8.6-15.2H86.7z"/>
	<path id="XMLID_10_" d="M319.9,234.7c-4.9,0-9.5,3.7-10.2,8.3l-2.3,14c-0.8,4.6,2.6,8.3,7.5,8.3h13.5c4.9,0,9.5-3.7,10.2-8.3
		l2.3-14c0.8-4.6-2.6-8.3-7.5-8.3H319.9z M320.4,240.2H331c1.4,0,2.3,1.1,2.1,2.5l-2.4,14.6c-0.2,1.4-1.5,2.5-2.9,2.5h-10.7
		c-1.4,0-2.3-1.1-2.1-2.5l2.4-14.6C317.7,241.3,319,240.2,320.4,240.2z"/>
	<path id="XMLID_11_" d="M275,234.7l-5.1,30.6h7.6l4.2-25.2h14.8c1.5,0,2.4,1.2,2.2,2.6l-0.3,2c-0.2,1.5-1.6,2.6-3.1,2.6h-7.6
		c-0.4,0-0.9,0.2-1.3,0.5c-1.1,0.8-1.5,2.2-0.8,3.1l9.2,14.3h7.5l-8.3-12.9h2.3c1.8,0,3.8-0.6,5.5-1.8c2.2-1.6,3.6-3.8,4.1-6.1
		l0.3-1.7c0.3-1.8,0-3.6-1-5c-1.3-2-3.4-3-5.7-3H275"/>
	<polyline id="XMLID_12_" class="st3" points="306,242.8 305.7,244.5 306,242.8 	"/>
	<polygon id="XMLID_13_" points="175.1,234.7 170,265.3 177.8,265.3 181.3,243.7 189.3,257.7 201.8,243.6 198.2,265.3 205.9,265.3 
		211,234.7 202.9,234.7 190.8,248.2 183.2,234.7 175.1,234.7 	"/>
	<path id="XMLID_14_" d="M223.1,234.7c-4.3,0-8.3,3.5-9,7.7l-2.5,15.2c-0.7,4.3,2.2,7.7,6.5,7.7h20.4l0.9-5.5h-18.5
		c-1.2,0-1.9-0.9-1.8-2.1l0.8-5h20.6l0.9-5.5h-20.6l0.8-5c0.2-1.2,1.3-2.1,2.4-2.1h18.5l0.9-5.5H223.1z"/>
	<polygon id="XMLID_15_" points="246.6,234.7 245.7,240 254.4,240 250.2,265.3 257.9,265.3 262.1,240 270.7,240 271.6,234.7 	"/>
	<polygon id="XMLID_16_" points="328.4,223.7 318.9,227.6 318.2,231.9 327.7,227.9 336,231.9 336.7,227.6 	"/>
	<path id="XMLID_17_" class="st4" d="M353.6,234.7l-5.1,30.6h7.6l4.2-25.2H375c1.5,0,2.4,1.2,2.2,2.6l-0.3,2
		c-0.2,1.5-1.6,2.6-3.1,2.6h-7.6c-0.4,0-0.9,0.2-1.3,0.5c-1.1,0.8-1.5,2.2-0.9,3.1l9.2,14.3h7.5l-8.3-12.9h2.3
		c1.8,0,3.8-0.6,5.5-1.8c2.2-1.6,3.6-3.8,4.1-6.1l0.3-1.7c0.3-1.8,0-3.6-1-5c-1.3-2-3.4-3-5.7-3H353.6z"/>
	<path id="XMLID_20_" class="st4" d="M411.4,234.7c-4.9,0-9.5,3.7-10.2,8.3l-2.3,14c-0.8,4.6,2.6,8.3,7.5,8.3h13.5
		c4.9,0,9.5-3.7,10.2-8.3l2.3-14c0.8-4.6-2.6-8.3-7.5-8.3H411.4z M411.9,240.2h10.7c1.4,0,2.3,1.1,2.1,2.5l-2.4,14.6
		c-0.2,1.4-1.5,2.5-2.9,2.5h-10.7c-1.4,0-2.3-1.1-2.1-2.5l2.4-14.6C409.3,241.3,410.6,240.2,411.9,240.2z"/>
	<polygon id="XMLID_21_" class="st4" points="389.8,234.7 384.7,265.3 392.4,265.3 397.5,234.7 	"/>
</g>
</svg>
