<?xml version="1.0" standalone="no"?>
<!DOCTYPE svg PUBLIC "-//W3C//DTD SVG 20010904//EN"
 "http://www.w3.org/TR/2001/REC-SVG-20010904/DTD/svg10.dtd">
<svg version="1.0" xmlns="http://www.w3.org/2000/svg"
 width="1024.000000pt" height="1024.000000pt" viewBox="0 0 1024.000000 1024.000000"
 preserveAspectRatio="xMidYMid meet">
<metadata>
Created by potrace 1.16, written by Peter Selinger 2001-2019
</metadata>
<g transform="translate(0.000000,1024.000000) scale(0.100000,-0.100000)"
fill="#000000" stroke="none">
<path d="M5122 8690 c-28 -13 -41 -24 -36 -32 5 -7 2 -9 -9 -5 -20 8 -106 -66
-89 -77 7 -4 12 -1 12 7 0 8 10 22 23 33 l22 19 -18 -22 c-20 -22 -15 -49 6
-37 7 4 8 3 4 -2 -4 -4 -20 -9 -35 -10 -15 -1 -30 -2 -33 -3 -13 -3 -49 -80
-48 -102 1 -13 -3 -36 -9 -50 l-10 -26 66 14 c66 14 181 13 232 -2 14 -4 42
-9 63 -11 20 -1 42 -6 47 -9 5 -3 18 -2 27 3 27 14 81 25 63 13 -12 -8 -12
-11 4 -17 11 -4 21 -2 26 7 5 7 12 10 17 6 4 -5 1 -12 -6 -16 -7 -5 -10 -14
-7 -20 5 -8 12 -7 22 4 9 8 12 20 9 25 -11 18 -13 60 -3 54 5 -3 7 -11 5 -17
-3 -7 7 -27 20 -45 14 -18 22 -40 19 -47 -6 -17 9 -21 19 -5 6 10 -12 51 -27
61 -5 3 -11 18 -12 33 -3 28 13 23 18 -5 1 -8 12 -33 24 -56 13 -24 19 -49 15
-59 -4 -10 -2 -15 4 -11 9 6 43 -84 43 -116 0 -8 6 -22 13 -29 17 -17 127
-300 127 -326 0 -3 -15 19 -34 50 -156 259 -380 418 -591 418 -141 0 -242 -48
-371 -175 -266 -263 -394 -719 -394 -1403 l0 -173 -92 7 c-92 6 -128 20 -113
44 8 14 7 480 -1 520 -4 20 -3 22 5 10 8 -11 10 9 7 72 -2 49 -1 86 4 83 9 -6
33 162 24 176 -4 6 0 15 7 20 11 7 12 13 1 41 -20 47 -26 78 -9 43 l14 -30 13
26 c9 21 9 31 1 45 -11 18 -11 17 -6 -3 3 -12 1 -24 -5 -28 -5 -3 -10 3 -10
14 0 11 -4 23 -10 26 -5 3 -10 12 -10 18 0 7 4 6 10 -3 8 -12 10 -9 10 13 0
28 15 37 23 15 2 -7 3 1 1 17 l-4 30 14 -25 c13 -23 14 -21 9 23 -5 39 -3 47
11 47 9 0 15 3 14 8 -4 16 13 82 24 88 8 5 9 1 4 -12 -16 -40 -17 -48 -2 -22
14 24 14 29 0 55 -13 23 -15 24 -11 5 3 -12 1 -20 -3 -17 -5 3 -11 -1 -13 -7
-3 -7 -3 2 0 20 4 26 3 31 -9 27 -8 -3 -21 1 -28 9 -17 21 -5 50 17 42 16 -6
16 -6 0 12 -13 15 -14 21 -4 32 6 8 -1 4 -17 -10 -15 -14 -49 -54 -74 -90 -25
-36 -53 -74 -62 -85 -9 -11 -27 -38 -39 -60 -23 -39 -23 -40 -1 -15 16 18 19
20 11 5 -5 -11 -19 -28 -31 -38 -12 -10 -19 -25 -16 -33 3 -9 1 -12 -4 -9 -6
3 -11 1 -11 -4 -3 -20 -5 -26 -28 -70 -13 -25 -17 -40 -9 -35 7 4 5 -1 -4 -12
-25 -29 -41 -74 -25 -74 8 0 9 -3 1 -8 -11 -7 -34 -46 -34 -57 0 -4 8 1 18 12
9 10 14 14 10 9 -12 -16 -9 -38 4 -30 7 4 8 3 4 -5 -4 -6 -12 -9 -17 -6 -5 4
-9 -4 -10 -17 -1 -23 -1 -22 -8 2 -6 21 -10 13 -24 -45 -9 -38 -17 -87 -17
-107 0 -21 -3 -38 -7 -38 -7 0 -13 -26 -15 -70 -1 -8 2 -28 6 -45 5 -23 4 -25
-3 -10 -7 15 -10 16 -12 5 -5 -36 -8 -90 -8 -158 0 -42 -5 -71 -10 -68 -5 3
-9 -29 -9 -77 0 -45 0 -100 -1 -123 l-1 -40 -135 -14 c-74 -7 -132 -16 -130
-21 3 -4 -4 -5 -15 -2 -11 3 -28 2 -37 -2 -10 -5 -30 -9 -45 -10 -15 -2 -35
-6 -45 -10 -10 -5 -22 -9 -28 -9 -36 -5 -74 -19 -70 -26 3 -4 -5 -6 -17 -2
-13 3 -19 1 -15 -5 5 -7 0 -9 -13 -6 -11 3 -20 0 -20 -6 0 -6 -3 -10 -7 -10
-23 4 -43 -2 -38 -11 3 -5 0 -7 -9 -4 -20 8 -60 -34 -47 -50 10 -12 10 -41 -2
-52 -3 -4 -4 5 -1 19 3 18 -1 29 -13 36 -13 7 -14 10 -4 11 8 0 12 3 8 6 -9 9
-75 -45 -82 -67 -4 -11 -11 -17 -16 -14 -5 3 -6 -2 -2 -11 4 -12 3 -15 -5 -10
-8 5 -10 1 -5 -10 4 -12 3 -15 -5 -10 -16 10 -14 -5 3 -28 8 -11 15 -25 15
-30 -1 -6 -7 0 -15 14 -8 15 -14 19 -14 10 -1 -20 36 -66 45 -57 4 4 2 7 -4 7
-7 0 -12 6 -12 13 1 6 11 -1 24 -17 22 -26 27 -28 72 -22 27 3 76 8 109 12 33
3 67 8 75 11 8 4 35 8 60 9 279 13 411 14 595 4 116 -7 232 -12 258 -11 26 0
46 -3 43 -7 -2 -4 3 -8 12 -9 9 0 35 -4 57 -8 22 -4 50 -7 63 -7 12 0 22 -3
22 -7 0 -4 6 -8 13 -9 42 -3 85 -10 93 -15 13 -7 106 -21 123 -18 8 1 17 -2
20 -7 8 -11 139 -44 151 -37 5 3 11 1 14 -4 4 -5 25 -12 49 -16 23 -4 47 -11
53 -16 6 -5 24 -10 40 -12 16 -2 36 -6 44 -9 48 -19 83 -26 97 -21 10 4 14 2
10 -4 -4 -6 3 -13 16 -16 12 -3 37 -10 55 -15 19 -6 30 -7 27 -1 -4 5 10 -1
30 -13 31 -17 38 -19 46 -7 6 10 9 10 9 2 0 -7 9 -13 19 -13 11 0 22 -4 25 -9
3 -4 18 -6 33 -4 20 3 24 2 15 -5 -10 -7 -4 -12 25 -17 41 -9 49 -11 61 -15 4
-2 12 -4 17 -5 6 -2 12 -4 15 -5 12 -4 48 -12 90 -19 25 -5 60 -16 77 -25 20
-11 41 -15 54 -11 15 5 19 4 15 -4 -4 -6 -1 -11 8 -11 8 0 18 5 21 10 3 6 0
10 -7 10 -9 0 -9 3 2 10 18 12 40 14 25 2 -17 -12 -18 -42 -1 -36 8 3 28 -2
45 -10 16 -9 43 -16 60 -16 16 0 33 -4 36 -10 3 -5 20 -7 38 -4 24 4 28 3 17
-5 -12 -9 -10 -11 10 -11 202 -3 228 -5 249 -24 29 -26 27 -34 -21 -78 -62
-57 -118 -86 -210 -109 -71 -18 -101 -20 -213 -15 -74 3 -169 14 -220 26 -251
58 -379 56 -553 -7 l-43 -16 29 -31 c16 -17 50 -59 75 -93 57 -74 132 -142
193 -173 135 -67 303 -43 411 58 l40 37 84 -22 c121 -31 113 -35 106 53 l-7
76 38 -29 c20 -16 55 -40 77 -54 l40 -26 29 -139 c37 -182 66 -294 76 -294 4
0 10 9 13 20 3 13 10 18 21 14 12 -4 16 0 17 17 1 13 4 96 8 184 l6 160 13
-80 c11 -74 43 -349 73 -628 7 -64 10 -119 7 -122 -3 -3 -114 8 -247 26 -133
17 -244 29 -245 28 -2 -2 -6 -19 -9 -37 -7 -32 -5 -34 86 -91 50 -32 122 -78
160 -102 l67 -43 0 -74 0 -75 -52 6 c-55 5 -210 -8 -266 -23 -20 -5 -76 -3
-150 5 -64 8 -118 12 -120 11 -1 -2 29 -19 68 -37 64 -31 86 -49 59 -49 -31 0
-287 -191 -288 -215 -1 -6 103 -114 229 -240 l230 -229 -28 -35 c-16 -19 -33
-36 -40 -39 -10 -3 -286 256 -425 400 l-59 61 -31 -32 -31 -31 -111 108 c-60
59 -180 173 -265 252 -85 80 -183 172 -218 204 l-62 59 36 -79 c19 -43 124
-256 231 -472 195 -393 195 -393 176 -415 -10 -12 -68 -78 -128 -147 -59 -69
-134 -151 -164 -183 l-56 -58 -6 33 c-3 18 -52 254 -107 523 -56 270 -132 645
-170 835 l-69 344 39 41 c34 35 78 92 102 132 5 9 -3 10 -28 6 -44 -7 -184 13
-234 34 -56 23 -157 98 -195 146 -131 162 -168 380 -97 570 36 97 38 97 98 23
64 -78 141 -132 235 -161 l69 -22 -54 -54 c-29 -30 -77 -67 -105 -84 -29 -16
-53 -33 -53 -37 0 -4 21 -23 48 -42 201 -147 486 -52 556 184 19 65 20 136 2
211 l-13 56 85 112 c46 62 82 114 79 117 -9 10 -148 42 -267 63 -172 30 -338
48 -605 66 -258 18 -334 30 -440 70 -38 14 -70 23 -73 20 -3 -2 3 -34 13 -70
21 -80 74 -164 144 -228 58 -54 58 -48 -8 -121 -43 -45 -92 -78 -143 -95 -21
-7 -38 -17 -38 -22 0 -20 96 -112 140 -134 25 -12 71 -28 103 -35 l57 -13 0
-51 c0 -104 -43 -212 -107 -272 l-24 -22 43 -25 c24 -14 60 -31 81 -38 31 -11
37 -17 32 -34 -3 -11 -9 -37 -12 -57 -3 -21 -11 -42 -17 -47 -6 -5 -74 -33
-151 -64 -533 -209 -946 -436 -1355 -744 -74 -56 -155 -119 -179 -141 l-45
-39 65 -35 c466 -254 698 -398 959 -592 152 -113 424 -340 480 -400 l24 -27
-307 3 c-169 2 -307 1 -307 -1 0 -16 160 -220 253 -322 131 -143 233 -236 379
-345 249 -185 577 -340 878 -413 120 -29 260 -55 265 -49 21 26 494 566 685
783 267 302 395 457 393 476 -2 12 2 16 11 13 7 -3 24 8 37 24 83 102 226 255
250 267 42 22 108 19 150 -8 33 -20 137 -137 229 -257 173 -227 299 -375 353
-419 178 -141 393 -211 610 -198 309 19 535 170 676 453 77 155 84 198 89 557
l3 317 65 0 64 0 0 174 c0 195 0 196 -71 218 -47 14 -46 12 -51 96 l-4 62 98
0 98 0 0 125 0 125 -551 0 -550 0 3 -122 3 -123 98 -3 97 -3 0 -48 c0 -27 3
-63 6 -80 l7 -31 149 0 c169 0 196 -7 264 -70 l44 -40 -295 0 -295 0 0 -140 0
-139 123 -3 122 -3 -2 -264 c-2 -169 -7 -278 -14 -300 -20 -61 -58 -107 -112
-137 -102 -56 -235 -30 -317 63 -36 41 -178 245 -183 262 -1 5 20 32 47 61
l49 51 -84 87 c-47 48 -125 132 -174 187 -109 122 -158 169 -255 242 -41 31
-76 57 -77 58 -2 1 8 28 21 61 13 32 72 194 131 359 59 165 125 340 146 389
l38 88 -11 208 -11 207 57 68 c94 111 91 100 76 221 -7 58 -10 107 -7 110 3 3
52 10 109 15 231 21 392 61 513 127 149 82 179 198 73 281 -22 18 -525 337
-634 403 -29 17 -32 24 -37 86 -4 37 -7 103 -7 147 -1 305 -77 657 -196 900
-100 206 -267 405 -439 521 -65 44 -236 130 -297 149 -55 18 -57 20 -73 69
-79 243 -290 398 -451 331 -26 -11 -42 -12 -62 -4 -14 6 -52 9 -83 8 -30 -1
-62 1 -69 6 -9 5 -15 4 -18 -3 -2 -7 -8 -12 -13 -12 -6 0 -7 5 -4 10 11 17
-58 11 -103 -10z m986 -1197 c26 -213 34 -414 29 -723 -3 -173 -10 -328 -15
-345 l-10 -30 -1 40 c-1 41 -53 430 -72 540 -21 123 -71 374 -94 477 -14 59
-25 108 -25 110 0 2 24 1 54 0 35 -3 64 2 82 12 16 8 31 15 35 16 3 0 10 -44
17 -97z m144 -3627 c151 -48 303 -161 390 -288 l39 -59 -56 -65 c-31 -35 -60
-64 -63 -64 -4 0 -42 35 -84 78 -122 125 -235 173 -407 175 -102 1 -174 -17
-270 -67 l-44 -23 -86 84 -86 83 35 31 c48 42 160 95 250 119 62 17 97 19 205
16 78 -3 149 -10 177 -20z m-900 -633 l77 -78 -205 -235 c-114 -129 -259 -296
-324 -370 -64 -74 -138 -155 -164 -178 -123 -113 -292 -131 -461 -48 -77 38
-205 145 -150 125 17 -6 80 -11 140 -12 185 -2 261 33 388 181 41 48 137 157
212 242 76 85 196 221 268 303 71 81 133 147 136 147 4 0 41 -35 83 -77z"/>
<path d="M7817 5724 c-39 -65 -59 -113 -60 -140 -1 -25 -3 -30 -10 -19 -4 8
-5 20 -2 25 3 6 4 10 1 10 -3 0 -10 -10 -17 -21 -8 -15 -8 -19 0 -15 15 10 14
5 -9 -48 -22 -52 -33 -61 -20 -16 11 37 6 38 -13 3 -7 -16 -28 -55 -46 -88
-18 -32 -26 -53 -18 -47 12 10 17 10 23 1 4 -7 3 -9 -4 -5 -14 8 -54 -44 -47
-61 2 -8 1 -12 -4 -9 -15 10 -23 -26 -26 -114 -1 -47 0 -77 2 -67 3 9 9 17 14
17 12 0 11 -7 -2 -32 -9 -16 -8 -19 2 -13 9 6 11 3 6 -8 -3 -8 1 -21 8 -27 8
-7 12 -17 9 -22 -4 -6 3 -5 14 1 14 8 23 8 27 1 4 -6 1 -9 -7 -8 -22 5 -14
-26 10 -38 12 -6 26 -15 30 -19 4 -5 1 -5 -5 -1 -7 4 -13 5 -13 3 0 -3 19 -15
42 -27 30 -16 53 -21 80 -17 22 3 36 1 32 -4 -3 -5 4 -9 16 -9 13 0 19 4 14
11 -4 7 0 9 13 5 11 -4 33 0 49 9 16 8 35 15 43 15 8 0 11 6 7 16 -3 8 -2 12
3 9 12 -7 61 15 61 27 0 5 -4 7 -8 4 -4 -2 -8 4 -8 14 0 10 4 16 8 14 4 -3 8
0 8 5 0 6 8 11 18 11 16 -1 16 -1 -1 -11 -9 -6 -15 -15 -11 -21 9 -15 45 44
38 64 -3 9 3 29 12 43 15 23 16 34 6 87 -13 68 -19 79 -32 58 -6 -9 -10 -10
-10 -3 0 6 5 15 10 18 15 9 12 31 -5 49 -9 8 -16 18 -15 21 1 25 -1 29 -9 16
-5 -8 -7 -20 -4 -28 3 -7 1 -13 -4 -13 -5 0 -8 15 -8 34 0 19 4 32 8 29 18
-11 -16 39 -45 68 -17 16 -26 29 -21 29 6 0 18 -10 27 -22 14 -19 14 -17 -1
10 -12 21 -23 30 -32 27 -9 -3 -12 -3 -8 1 4 4 1 14 -6 23 -11 14 -10 15 8 1
17 -13 16 -10 -4 25 -13 22 -35 48 -48 58 -12 10 -23 24 -23 30 0 6 7 2 15 -9
14 -17 14 -15 0 14 -15 31 -29 45 -20 20 6 -17 -12 -45 -22 -35 -4 5 -3 11 3
15 6 4 11 16 10 27 -3 27 -22 60 -29 49z"/>
<path d="M7376 4705 c-18 -9 -21 -21 -24 -88 l-3 -77 471 0 470 0 0 74 c0 53
-4 77 -15 86 -19 16 -867 21 -899 5z"/>
<path d="M6054 2948 c-81 -96 -266 -311 -274 -318 -3 -3 -30 -34 -60 -69 -30
-36 -64 -74 -75 -86 -11 -12 -31 -35 -45 -51 -14 -16 -47 -54 -74 -84 -53 -60
-55 -62 -201 -230 -54 -63 -102 -117 -105 -120 -3 -3 -41 -45 -84 -95 -43 -49
-105 -120 -138 -158 -33 -37 -70 -79 -81 -94 l-21 -26 200 6 c449 14 837 130
1197 358 178 113 394 290 380 312 -3 5 -2 7 4 4 6 -4 21 5 34 19 l24 26 -85
82 c-48 44 -105 105 -129 134 -24 28 -48 49 -53 45 -6 -3 -8 -1 -4 5 10 17
-304 422 -327 422 -8 0 -45 -37 -83 -82z"/>
</g>
</svg>
