<svg version="1.1" id="Layer_1" xmlns="http://www.w3.org/2000/svg" xmlns:xlink="http://www.w3.org/1999/xlink" x="0px" y="0px"
	 width="100%" viewBox="0 0 3668 1790" enable-background="new 0 0 3668 1790" xml:space="preserve">
<path fill="#3F7801" opacity="1.000000" stroke="none" 
	d="
M2326.000000,1792.000000 
	C1550.666626,1792.000000 776.333313,1792.000000 2.000000,1792.000000 
	C2.000000,1195.333374 2.000000,598.666687 2.000000,2.000000 
	C1224.666626,2.000000 2447.333252,2.000000 3670.000000,2.000000 
	C3670.000000,598.666687 3670.000000,1195.333374 3670.000000,1792.000000 
	C3222.333252,1792.000000 2774.666748,1792.000000 2326.000000,1792.000000 
M1932.056885,1149.000000 
	C1932.022827,1186.323242 1932.085083,1223.646973 1931.864990,1260.969116 
	C1931.826050,1267.589478 1930.868164,1274.241577 1929.878662,1280.810181 
	C1928.610840,1289.227539 1923.922607,1294.925659 1915.187134,1296.182495 
	C1908.625977,1297.126587 1901.986328,1297.634521 1895.363037,1298.001709 
	C1890.201172,1298.287842 1885.010742,1298.058960 1879.822998,1298.058960 
	C1879.822998,1320.235718 1879.822998,1341.040894 1879.822998,1361.844482 
	C1933.299316,1361.844482 1986.102417,1361.844482 2039.016846,1361.844482 
	C2039.016846,1340.364868 2039.016846,1319.565308 2039.016846,1298.840088 
	C2029.790405,1298.051880 2021.199097,1297.515869 2012.658569,1296.537231 
	C2002.620972,1295.386963 1997.173828,1289.219971 1996.126343,1279.452759 
	C1995.133789,1270.199707 1994.225098,1260.880005 1994.211670,1251.588379 
	C1994.074341,1156.276367 1994.126831,1060.964111 1994.126343,965.651917 
	C1994.126343,962.610779 1994.126465,959.569641 1994.126465,956.528564 
	C1994.785645,956.488342 1995.444946,956.448181 1996.104126,956.407959 
	C2025.533325,1091.500732 2054.962646,1226.593506 2084.466797,1362.031372 
	C2109.895508,1362.031372 2134.762207,1362.031372 2160.108398,1362.031372 
	C2190.345703,1227.512451 2220.511719,1093.309814 2250.677734,959.107239 
	C2251.502686,959.192871 2252.327637,959.278442 2253.152588,959.364075 
	C2253.152588,962.532410 2253.152588,965.700806 2253.152588,968.869202 
	C2253.152344,1063.848145 2253.178955,1158.827148 2253.099121,1253.806152 
	C2253.093018,1261.119751 2252.643311,1268.465942 2251.863281,1275.739380 
	C2250.268799,1290.604248 2245.362061,1295.546143 2230.625977,1297.490723 
	C2226.678955,1298.011475 2222.648682,1297.940796 2218.653809,1298.042358 
	C2215.408936,1298.125000 2212.159912,1298.059204 2209.092529,1298.059204 
	C2207.101562,1310.103760 2207.457764,1355.225220 2209.338379,1361.800537 
	C2274.240479,1361.800537 2339.045166,1361.800537 2403.645996,1361.800537 
	C2403.645996,1340.271973 2403.645996,1319.466797 2403.645996,1298.059326 
	C2397.017090,1298.059326 2391.064697,1298.149292 2385.116211,1298.029175 
	C2380.792480,1297.941895 2376.414062,1297.949463 2372.164062,1297.267334 
	C2358.435547,1295.064087 2353.726562,1290.300537 2352.102539,1276.531372 
	C2351.168213,1268.608398 2350.597656,1260.592651 2350.588623,1252.617798 
	C2350.485840,1161.638062 2350.509033,1070.658203 2350.555664,979.678345 
	C2350.558350,974.358337 2350.965820,969.032837 2351.327637,963.719604 
	C2352.888428,940.799133 2357.048584,935.785645 2383.538330,934.564941 
	C2390.115723,934.261841 2396.718994,934.519592 2403.582031,934.519592 
	C2403.582031,912.663879 2403.582031,891.619446 2403.582031,870.455750 
	C2338.607910,870.455750 2274.393066,870.455750 2209.330078,870.455750 
	C2186.766846,970.021973 2164.246094,1069.399536 2141.725586,1168.777100 
	C2141.133789,1168.775391 2140.542236,1168.773804 2139.950684,1168.772095 
	C2118.583984,1069.356567 2097.217285,969.941040 2075.827881,870.420166 
	C2010.053223,870.420166 1945.150879,870.420166 1880.314209,870.420166 
	C1878.393677,880.975159 1878.758789,926.842224 1880.714478,933.803284 
	C1891.689453,934.541321 1902.682617,934.767395 1913.526367,936.158508 
	C1923.751831,937.470215 1928.343872,942.046204 1929.853394,952.207153 
	C1931.217529,961.390259 1931.933594,970.751404 1931.964722,980.037292 
	C1932.151001,1035.690918 1932.057007,1091.345703 1932.056885,1149.000000 
M752.544434,890.343262 
	C727.513000,875.152527 699.763916,870.286377 671.148071,870.174683 
	C589.173584,869.854614 507.197113,870.056458 425.221405,870.076538 
	C422.982239,870.077087 420.743103,870.344360 418.129517,870.511169 
	C418.129517,891.940430 418.129517,912.758545 418.129517,934.519897 
	C421.461945,934.519897 424.383301,934.410583 427.293945,934.540466 
	C435.930267,934.925720 444.631195,934.873657 453.179199,935.979309 
	C464.480011,937.441040 468.189026,941.159058 470.251343,952.251587 
	C471.400848,958.434631 472.113159,964.797119 472.120697,971.079773 
	C472.236847,1067.717651 472.248169,1164.355591 472.115082,1260.993530 
	C472.105499,1267.935669 471.021698,1274.909790 470.019287,1281.808350 
	C468.827118,1290.012451 463.852142,1295.025391 455.653564,1296.209229 
	C449.094971,1297.156372 442.454315,1297.668335 435.831360,1297.996704 
	C429.975281,1298.287109 424.093414,1298.057495 418.257324,1298.057495 
	C418.257324,1320.205444 418.257324,1341.034058 418.257324,1361.871338 
	C489.636047,1361.871338 560.412354,1361.871338 631.310181,1361.871338 
	C631.310181,1340.421997 631.310181,1319.627808 631.310181,1298.053955 
	C624.090210,1298.053955 617.474121,1298.292725 610.884033,1297.981079 
	C605.258789,1297.714966 599.621460,1297.067749 594.064819,1296.138672 
	C585.916992,1294.776123 581.002258,1289.806152 579.809326,1281.589111 
	C578.903259,1275.347656 577.809753,1269.053345 577.779968,1262.777832 
	C577.593140,1223.457153 577.667236,1184.135010 577.716797,1144.813354 
	C577.719543,1142.633545 578.273743,1140.454468 578.577759,1138.226929 
	C597.191467,1138.226929 615.157227,1138.103638 633.118958,1138.317139 
	C637.401978,1138.367920 641.725891,1139.302124 645.937134,1140.247925 
	C658.729919,1143.120728 667.918945,1150.281982 670.103882,1163.704224 
	C672.074890,1175.811768 673.646484,1188.083984 674.036255,1200.326904 
	C674.693359,1220.967285 673.827148,1241.654907 674.432556,1262.298340 
	C675.088013,1284.648804 677.612488,1306.800293 685.933472,1327.880859 
	C695.982971,1353.340210 714.030212,1369.474854 741.016846,1375.071777 
	C746.544800,1376.218262 752.200134,1377.059570 757.832153,1377.346436 
	C800.194153,1379.504517 828.240723,1362.613159 841.887085,1323.153687 
	C842.756592,1320.639526 843.506042,1318.081055 844.228943,1315.519775 
	C851.083435,1291.234863 852.626709,1266.370239 852.227295,1241.305786 
	C852.149475,1236.424805 851.784607,1231.548340 851.550903,1226.643921 
	C838.752869,1226.643921 826.930115,1226.643921 814.054260,1226.643921 
	C814.054260,1234.457642 814.522949,1241.752930 813.951538,1248.965820 
	C812.928284,1261.881836 811.937439,1274.864624 809.684387,1287.598511 
	C807.854675,1297.940063 801.937500,1303.164429 795.217896,1303.060669 
	C788.284363,1302.953491 783.203430,1297.771484 781.925720,1286.889771 
	C780.455322,1274.366211 780.109192,1261.688354 779.731506,1249.063721 
	C779.044373,1226.096924 779.528503,1203.065186 778.015076,1180.160034 
	C775.546936,1142.806519 759.063354,1115.416626 720.547729,1105.320923 
	C719.282166,1104.989136 718.209778,1103.920776 716.554504,1102.888550 
	C721.793945,1101.061035 726.240601,1099.673096 730.565918,1097.975708 
	C766.894775,1083.718994 789.616028,1057.895264 796.481873,1019.144348 
	C801.083374,993.173645 799.735657,967.336670 791.827148,942.103455 
	C785.137939,920.760498 772.811218,903.379883 752.544434,890.343262 
M1876.676392,648.999512 
	C1876.676392,711.548523 1876.676392,774.097534 1876.676392,837.126831 
	C2053.172607,837.126831 2228.540283,837.126831 2404.177979,837.126831 
	C2404.177979,737.189270 2404.177979,637.798157 2404.177979,536.141663 
	C2359.818115,594.434204 2316.792480,650.973267 2273.264648,708.172302 
	C2232.311279,649.914368 2192.189941,592.839722 2151.617920,535.124146 
	C2104.422852,594.330872 2058.170654,652.354797 2012.020874,710.250122 
	C2010.916260,709.640137 2010.553467,709.556763 2010.382812,709.329163 
	C1966.644165,650.975830 1922.919556,592.612061 1879.174072,534.263855 
	C1879.012329,534.048096 1878.554199,533.968384 1878.239258,533.978455 
	C1877.940186,533.987976 1877.647583,534.198792 1876.676392,534.600769 
	C1876.676392,571.877869 1876.676392,609.438660 1876.676392,648.999512 
M2444.095703,1089.524902 
	C2444.089600,1094.853271 2443.807861,1100.198608 2444.135254,1105.506470 
	C2444.803467,1116.348877 2447.961914,1126.447388 2454.388184,1135.329224 
	C2474.248535,1162.778076 2516.100830,1160.025513 2530.847656,1130.331421 
	C2544.251465,1103.341187 2533.656006,1075.234619 2504.645020,1063.936523 
	C2508.139160,1061.524048 2510.847412,1059.216797 2513.921387,1057.608032 
	C2526.789307,1050.873413 2540.579346,1049.761230 2554.733643,1051.545898 
	C2580.576904,1054.804199 2597.072510,1070.723755 2601.241211,1096.317383 
	C2606.191162,1126.705933 2595.175537,1147.762207 2566.906250,1159.537842 
	C2553.128174,1165.277344 2538.713379,1169.560547 2524.428711,1173.992920 
	C2505.636963,1179.823853 2487.091064,1186.099487 2469.923340,1195.965210 
	C2452.883057,1205.757446 2441.385254,1219.937622 2436.372803,1238.865723 
	C2429.128906,1266.219727 2429.030518,1293.783691 2438.437256,1320.556641 
	C2448.346436,1348.759888 2467.120361,1368.643799 2497.648682,1374.118164 
	C2536.633057,1381.108643 2569.227783,1368.923462 2595.175049,1339.056152 
	C2599.294678,1334.314209 2603.025879,1329.234985 2607.296875,1323.858032 
	C2608.341064,1326.249390 2609.160889,1328.030762 2609.899414,1329.845215 
	C2610.651611,1331.692871 2611.268066,1333.596680 2612.039551,1335.435669 
	C2621.582520,1358.179321 2638.349609,1371.911011 2662.917725,1375.243286 
	C2670.123047,1376.220459 2677.595703,1376.254761 2684.853760,1375.638428 
	C2713.445801,1373.210083 2733.520020,1359.065308 2743.236572,1331.553345 
	C2745.225098,1325.923096 2746.739258,1320.090698 2748.023193,1314.252930 
	C2751.693359,1297.560913 2752.283447,1280.592896 2752.145020,1263.572266 
	C2752.070068,1254.364014 2752.131592,1245.154541 2752.131592,1235.137451 
	C2740.204346,1235.415039 2729.433350,1234.636719 2718.198730,1235.687012 
	C2718.198730,1248.852417 2718.452881,1260.843018 2718.086426,1272.814697 
	C2717.915283,1278.414917 2716.988770,1284.093140 2715.585205,1289.524292 
	C2714.349365,1294.305054 2710.940186,1297.548462 2705.585205,1297.964233 
	C2700.451904,1298.362915 2696.514404,1295.863159 2693.972412,1290.267456 
	C2693.020020,1288.171387 2692.212646,1285.886353 2691.960449,1283.618286 
	C2691.188477,1276.683105 2690.282959,1269.718872 2690.212158,1262.757935 
	C2689.991455,1241.097900 2690.169678,1219.433838 2690.122803,1197.771606 
	C2690.052002,1165.113281 2690.207520,1132.450317 2689.683350,1099.798706 
	C2689.454102,1085.498413 2688.062500,1071.137451 2682.143311,1057.782104 
	C2671.745605,1034.322998 2653.413818,1019.695984 2629.332031,1012.359436 
	C2589.381104,1000.188232 2548.992920,999.970398 2509.273682,1012.471924 
	C2472.731201,1023.973572 2448.616699,1047.677002 2444.095703,1089.524902 
M984.468262,1372.650513 
	C991.398132,1373.525635 998.308655,1374.939819 1005.261047,1375.189819 
	C1056.983276,1377.049438 1097.220337,1357.511597 1122.894775,1311.318970 
	C1133.170776,1292.830811 1139.687744,1272.968872 1144.067993,1252.358276 
	C1144.515747,1250.251709 1144.531738,1248.053223 1144.745361,1245.925415 
	C1122.547485,1245.925415 1101.042847,1245.925415 1080.760620,1245.925415 
	C1076.912476,1257.624390 1074.599609,1268.853760 1069.663452,1278.778687 
	C1059.700928,1298.810669 1041.978149,1306.715454 1020.210999,1305.889526 
	C999.465393,1305.102539 986.598877,1293.261841 978.788025,1274.963745 
	C977.224243,1271.300415 975.829224,1267.524780 974.794556,1263.682861 
	C969.819214,1245.207520 968.588379,1226.307251 968.781250,1207.271729 
	C968.786621,1206.734497 969.503662,1206.204712 970.638733,1204.633667 
	C1029.713623,1204.633667 1089.543213,1204.633667 1150.710083,1204.633667 
	C1149.741821,1186.281494 1149.416138,1168.976807 1147.783936,1151.796265 
	C1145.377686,1126.468018 1139.411865,1101.928345 1128.095215,1078.946899 
	C1113.785645,1049.887573 1093.101929,1027.224976 1062.608765,1014.655884 
	C1046.701660,1008.099060 1029.992920,1005.576660 1012.872620,1005.227295 
	C968.736389,1004.326660 933.259399,1021.053040 907.170532,1056.979980 
	C895.705994,1072.767700 887.448730,1090.157593 882.011292,1108.827515 
	C869.218201,1152.753784 867.644348,1197.428345 874.825378,1242.360718 
	C879.837830,1273.724243 891.380310,1302.606079 911.566589,1327.595825 
	C930.194763,1350.656738 953.462280,1366.322266 984.468262,1372.650513 
M3234.906738,1301.885010 
	C3243.157471,1284.069336 3249.128662,1265.580444 3252.316895,1245.804443 
	C3229.902588,1245.804443 3208.396240,1245.804443 3186.579102,1245.804443 
	C3186.104004,1248.603882 3185.741211,1250.839478 3185.343506,1253.068970 
	C3183.340088,1264.296387 3179.947021,1274.923096 3173.634277,1284.643311 
	C3156.499512,1311.027344 3104.918701,1317.882690 3087.295410,1277.940674 
	C3077.101318,1254.836670 3075.587402,1230.541260 3076.081543,1204.737549 
	C3136.791992,1204.737549 3196.595215,1204.737549 3256.801514,1204.737549 
	C3257.016113,1201.109741 3257.434326,1198.502563 3257.280273,1195.929565 
	C3256.206299,1177.992310 3255.834717,1159.962158 3253.663818,1142.153564 
	C3250.500244,1116.198853 3243.040527,1091.365601 3229.729736,1068.600708 
	C3215.537842,1044.329346 3196.280029,1025.579834 3169.981689,1014.745850 
	C3154.073730,1008.192139 3137.385254,1005.601562 3120.246338,1005.239197 
	C3075.694580,1004.297485 3039.987549,1021.210815 3013.862061,1057.618896 
	C3001.889160,1074.303955 2993.521240,1092.723999 2988.069336,1112.452881 
	C2976.995605,1152.524414 2975.336182,1193.297729 2980.666260,1234.288818 
	C2984.843262,1266.411865 2995.597900,1296.215942 3014.864990,1322.764282 
	C3056.990479,1380.809814 3125.769043,1384.587036 3173.025146,1364.955811 
	C3201.838135,1352.986328 3220.830566,1330.741577 3234.906738,1301.885010 
M2872.132568,907.029297 
	C2872.132568,898.742798 2872.132568,890.456238 2872.132568,881.676758 
	C2853.536133,881.676758 2835.692139,881.676758 2817.048096,881.676758 
	C2816.705566,885.671448 2816.402588,889.231812 2816.094482,892.791687 
	C2813.845215,918.767578 2809.695801,944.372070 2799.595459,968.593811 
	C2788.882812,994.285461 2773.057373,1014.837524 2743.678711,1020.758728 
	C2743.678711,1039.045776 2743.678711,1056.920044 2743.678711,1075.785278 
	C2755.992432,1075.785278 2767.808838,1075.785278 2780.321777,1075.785278 
	C2780.321777,1080.353760 2780.321533,1083.956665 2780.321533,1087.559448 
	C2780.321289,1133.881714 2780.166260,1180.204590 2780.401123,1226.525757 
	C2780.488770,1243.836304 2780.955322,1261.180664 2782.207764,1278.440186 
	C2783.656494,1298.410278 2787.080078,1318.089355 2795.633789,1336.494751 
	C2803.945557,1354.378662 2817.384277,1366.483643 2836.234131,1372.472290 
	C2855.404053,1378.562866 2874.872559,1379.187378 2894.450928,1375.076904 
	C2919.310791,1369.857666 2937.387695,1355.559570 2947.541992,1332.367554 
	C2952.171143,1321.794800 2955.572021,1310.461182 2957.876221,1299.136230 
	C2964.441406,1266.869385 2961.765869,1234.094727 2961.917725,1201.489258 
	C2961.920410,1200.908081 2961.420166,1200.324585 2960.949951,1199.293091 
	C2946.674561,1199.293091 2932.216309,1199.293091 2917.133545,1199.293091 
	C2916.962891,1203.116821 2916.736816,1206.362915 2916.686523,1209.611816 
	C2916.396973,1228.265991 2916.564209,1246.939697 2915.715332,1265.567627 
	C2915.279053,1275.142090 2913.742920,1284.806152 2911.427979,1294.112427 
	C2909.498779,1301.868652 2904.469727,1307.730469 2895.501221,1308.526123 
	C2886.409424,1309.332520 2879.267578,1305.530029 2876.524902,1295.824707 
	C2873.936035,1286.663452 2872.373047,1276.898071 2872.316162,1267.386719 
	C2871.953369,1206.736816 2872.131836,1146.083496 2872.132080,1085.431396 
	C2872.132080,1082.518677 2872.132080,1079.605957 2872.132080,1075.991455 
	C2895.100830,1075.074463 2917.243408,1076.336426 2939.166992,1075.303345 
	C2939.166992,1054.955200 2939.166992,1035.780762 2939.166992,1015.677429 
	C2916.717285,1015.677429 2894.880859,1015.677429 2872.132568,1015.677429 
	C2872.132568,979.500305 2872.132568,944.259338 2872.132568,907.029297 
M1418.988281,1123.975586 
	C1405.289917,1137.907837 1397.056030,1154.944214 1392.160522,1173.504883 
	C1381.264893,1214.814209 1381.460571,1256.514404 1389.310791,1298.292236 
	C1392.413818,1314.806763 1398.037231,1330.425171 1407.848022,1344.254883 
	C1424.261597,1367.392090 1452.541260,1377.540649 1479.235352,1370.086304 
	C1494.937622,1365.701660 1505.582397,1355.072266 1514.283569,1341.984497 
	C1516.190918,1339.115479 1518.132568,1336.269531 1520.058472,1333.413086 
	C1520.697876,1333.610107 1521.337280,1333.807251 1521.976685,1334.004272 
	C1521.976685,1343.391724 1521.976685,1352.779053 1521.976685,1361.986816 
	C1552.975464,1361.986816 1582.847534,1361.986816 1613.152588,1361.986816 
	C1613.152588,1347.957886 1613.152588,1334.474976 1613.152588,1319.983765 
	C1608.731323,1319.983765 1604.795410,1320.195557 1600.889893,1319.942139 
	C1591.099731,1319.306763 1587.155029,1315.648682 1586.167236,1305.796509 
	C1585.603638,1300.177246 1585.702637,1294.479736 1585.701172,1288.817505 
	C1585.676514,1200.161499 1585.688599,1111.505493 1585.669312,1022.849548 
	C1585.668457,1019.003113 1585.446777,1015.156677 1585.328003,1011.310974 
	C1551.984375,1011.310974 1519.824463,1011.310974 1487.478516,1011.310974 
	C1487.478516,1025.709229 1487.478516,1039.456665 1487.478516,1053.681396 
	C1491.272461,1053.681396 1494.253906,1053.668335 1497.235107,1053.683594 
	C1515.129150,1053.775024 1518.279785,1056.545532 1518.560181,1074.432251 
	C1518.883911,1095.091064 1518.640381,1115.758789 1518.589844,1136.422607 
	C1518.587158,1137.530151 1518.090820,1138.636353 1517.451904,1141.289551 
	C1505.384766,1124.546143 1492.160645,1111.716187 1472.610962,1108.014404 
	C1452.655396,1104.235718 1434.956909,1108.902588 1418.988281,1123.975586 
M1251.000000,1015.877991 
	C1226.820068,1015.877991 1202.640137,1015.877991 1178.297729,1015.877991 
	C1178.297729,1036.784424 1178.297729,1056.326538 1178.297729,1076.283447 
	C1186.957153,1076.736694 1195.256348,1076.813843 1203.470947,1077.687134 
	C1214.981445,1078.910645 1218.546509,1082.469116 1219.753906,1094.053467 
	C1220.650146,1102.650635 1221.071289,1111.333374 1221.093506,1119.979492 
	C1221.216919,1167.957397 1221.200806,1215.935669 1221.101685,1263.913574 
	C1221.087280,1270.894287 1220.684937,1277.908447 1219.908936,1284.845337 
	C1218.565430,1296.854614 1214.369629,1300.953613 1202.174805,1302.479492 
	C1197.571045,1303.055664 1192.884399,1303.012329 1188.232666,1303.149780 
	C1184.993896,1303.245605 1181.750000,1303.168335 1178.481445,1303.168335 
	C1178.481445,1323.497925 1178.481445,1342.668213 1178.481445,1361.992432 
	C1237.227295,1361.992432 1295.362061,1361.992432 1353.843994,1361.992432 
	C1353.843994,1342.313477 1353.843994,1323.162476 1353.843994,1303.689575 
	C1346.437622,1303.250488 1339.457764,1303.202148 1332.579224,1302.343384 
	C1322.164307,1301.043457 1318.509644,1297.713623 1316.801880,1287.437866 
	C1315.772095,1281.241333 1315.722534,1274.834839 1315.717407,1268.522339 
	C1315.651855,1188.225708 1315.674316,1107.928955 1315.674316,1027.632324 
	C1315.674316,1024.053589 1315.674194,1020.474915 1315.674194,1015.877991 
	C1294.122681,1015.877991 1273.561279,1015.877991 1251.000000,1015.877991 
M1630.120850,1260.507202 
	C1631.485718,1269.049316 1632.349487,1277.707642 1634.297974,1286.114624 
	C1645.779663,1335.655640 1677.173584,1365.705200 1725.370361,1371.017700 
	C1773.055298,1376.273438 1813.541504,1356.814575 1834.355469,1309.528809 
	C1836.627686,1304.366943 1838.597656,1299.022217 1840.152100,1293.602783 
	C1848.464844,1264.621216 1849.246216,1235.184937 1844.909180,1205.512451 
	C1842.334229,1187.895752 1837.185059,1171.096558 1828.145386,1155.650024 
	C1814.210205,1131.838257 1794.326416,1115.682739 1767.336426,1108.804688 
	C1754.277222,1105.476562 1740.970825,1105.032227 1727.625854,1105.969604 
	C1698.486084,1108.016968 1674.561401,1120.134644 1656.560913,1143.399292 
	C1648.326538,1154.041748 1642.373047,1165.885742 1638.044067,1178.595581 
	C1629.170166,1204.649536 1628.532104,1231.520630 1630.120850,1260.507202 
M2205.904785,478.406799 
	C2208.873291,444.044128 2181.471924,415.069427 2145.089355,418.052765 
	C2117.134033,420.345093 2095.765137,444.487244 2095.874023,473.905579 
	C2095.979492,502.415375 2117.871338,526.031982 2145.703369,528.029907 
	C2176.076660,530.210205 2202.233398,509.609192 2205.904785,478.406799 
M2384.680908,528.667664 
	C2420.144043,542.506226 2458.570801,517.597168 2459.399658,477.137146 
	C2459.981934,448.698151 2440.093750,427.334106 2413.239990,422.673523 
	C2387.400879,418.189026 2360.512695,433.813782 2352.139160,458.585449 
	C2342.257568,487.819214 2357.362549,517.491943 2384.680908,528.667664 
M1827.806519,463.047455 
	C1827.727051,469.658508 1826.752808,476.404358 1827.724609,482.857086 
	C1831.724365,509.412231 1854.596313,528.317078 1881.687988,528.120911 
	C1909.211304,527.921570 1931.669678,507.980591 1935.291504,479.823364 
	C1938.275269,456.626465 1924.795532,430.191589 1897.622070,421.916077 
	C1863.886963,411.642242 1834.188110,433.182648 1827.806519,463.047455 
M1308.172852,938.978577 
	C1308.475464,936.000916 1308.959595,933.028870 1309.051636,930.044678 
	C1309.670166,909.983032 1304.855713,891.752197 1290.186646,877.220703 
	C1274.434326,861.616089 1251.544189,861.669617 1235.635620,877.072876 
	C1224.393188,887.958313 1218.474854,901.484619 1216.862427,916.811218 
	C1214.619263,938.133057 1218.340088,958.020020 1233.452026,974.314209 
	C1249.872681,992.019226 1275.186279,991.879578 1291.692261,974.267639 
	C1300.590576,964.773132 1305.755615,953.423401 1308.172852,938.978577 
z"/>
<path fill="#FEFEFE" opacity="1.000000" stroke="none" 
	d="
M1932.056885,1148.000000 
	C1932.057007,1091.345703 1932.151001,1035.690918 1931.964722,980.037292 
	C1931.933594,970.751404 1931.217529,961.390259 1929.853394,952.207153 
	C1928.343872,942.046204 1923.751831,937.470215 1913.526367,936.158508 
	C1902.682617,934.767395 1891.689453,934.541321 1880.714478,933.803284 
	C1878.758789,926.842224 1878.393677,880.975159 1880.314209,870.420166 
	C1945.150879,870.420166 2010.053223,870.420166 2075.827881,870.420166 
	C2097.217285,969.941040 2118.583984,1069.356567 2139.950684,1168.772095 
	C2140.542236,1168.773804 2141.133789,1168.775391 2141.725586,1168.777100 
	C2164.246094,1069.399536 2186.766846,970.021973 2209.330078,870.455750 
	C2274.393066,870.455750 2338.607910,870.455750 2403.582031,870.455750 
	C2403.582031,891.619446 2403.582031,912.663879 2403.582031,934.519592 
	C2396.718994,934.519592 2390.115723,934.261841 2383.538330,934.564941 
	C2357.048584,935.785645 2352.888428,940.799133 2351.327637,963.719604 
	C2350.965820,969.032837 2350.558350,974.358337 2350.555664,979.678345 
	C2350.509033,1070.658203 2350.485840,1161.638062 2350.588623,1252.617798 
	C2350.597656,1260.592651 2351.168213,1268.608398 2352.102539,1276.531372 
	C2353.726562,1290.300537 2358.435547,1295.064087 2372.164062,1297.267334 
	C2376.414062,1297.949463 2380.792480,1297.941895 2385.116211,1298.029175 
	C2391.064697,1298.149292 2397.017090,1298.059326 2403.645996,1298.059326 
	C2403.645996,1319.466797 2403.645996,1340.271973 2403.645996,1361.800537 
	C2339.045166,1361.800537 2274.240479,1361.800537 2209.338379,1361.800537 
	C2207.457764,1355.225220 2207.101562,1310.103760 2209.092529,1298.059204 
	C2212.159912,1298.059204 2215.408936,1298.125000 2218.653809,1298.042358 
	C2222.648682,1297.940796 2226.678955,1298.011475 2230.625977,1297.490723 
	C2245.362061,1295.546143 2250.268799,1290.604248 2251.863281,1275.739380 
	C2252.643311,1268.465942 2253.093018,1261.119751 2253.099121,1253.806152 
	C2253.178955,1158.827148 2253.152344,1063.848145 2253.152588,968.869202 
	C2253.152588,965.700806 2253.152588,962.532410 2253.152588,959.364075 
	C2252.327637,959.278442 2251.502686,959.192871 2250.677734,959.107239 
	C2220.511719,1093.309814 2190.345703,1227.512451 2160.108398,1362.031372 
	C2134.762207,1362.031372 2109.895508,1362.031372 2084.466797,1362.031372 
	C2054.962646,1226.593506 2025.533325,1091.500732 1996.104126,956.407959 
	C1995.444946,956.448181 1994.785645,956.488342 1994.126465,956.528564 
	C1994.126465,959.569641 1994.126343,962.610779 1994.126343,965.651917 
	C1994.126831,1060.964111 1994.074341,1156.276367 1994.211670,1251.588379 
	C1994.225098,1260.880005 1995.133789,1270.199707 1996.126343,1279.452759 
	C1997.173828,1289.219971 2002.620972,1295.386963 2012.658569,1296.537231 
	C2021.199097,1297.515869 2029.790405,1298.051880 2039.016846,1298.840088 
	C2039.016846,1319.565308 2039.016846,1340.364868 2039.016846,1361.844482 
	C1986.102417,1361.844482 1933.299316,1361.844482 1879.822998,1361.844482 
	C1879.822998,1341.040894 1879.822998,1320.235718 1879.822998,1298.058960 
	C1885.010742,1298.058960 1890.201172,1298.287842 1895.363037,1298.001709 
	C1901.986328,1297.634521 1908.625977,1297.126587 1915.187134,1296.182495 
	C1923.922607,1294.925659 1928.610840,1289.227539 1929.878662,1280.810181 
	C1930.868164,1274.241577 1931.826050,1267.589478 1931.864990,1260.969116 
	C1932.085083,1223.646973 1932.022827,1186.323242 1932.056885,1148.000000 
z"/>
<path fill="#FEFEFD" opacity="1.000000" stroke="none" 
	d="
M753.143311,890.755615 
	C772.811218,903.379883 785.137939,920.760498 791.827148,942.103455 
	C799.735657,967.336670 801.083374,993.173645 796.481873,1019.144348 
	C789.616028,1057.895264 766.894775,1083.718994 730.565918,1097.975708 
	C726.240601,1099.673096 721.793945,1101.061035 716.554504,1102.888550 
	C718.209778,1103.920776 719.282166,1104.989136 720.547729,1105.320923 
	C759.063354,1115.416626 775.546936,1142.806519 778.015076,1180.160034 
	C779.528503,1203.065186 779.044373,1226.096924 779.731506,1249.063721 
	C780.109192,1261.688354 780.455322,1274.366211 781.925720,1286.889771 
	C783.203430,1297.771484 788.284363,1302.953491 795.217896,1303.060669 
	C801.937500,1303.164429 807.854675,1297.940063 809.684387,1287.598511 
	C811.937439,1274.864624 812.928284,1261.881836 813.951538,1248.965820 
	C814.522949,1241.752930 814.054260,1234.457642 814.054260,1226.643921 
	C826.930115,1226.643921 838.752869,1226.643921 851.550903,1226.643921 
	C851.784607,1231.548340 852.149475,1236.424805 852.227295,1241.305786 
	C852.626709,1266.370239 851.083435,1291.234863 844.228943,1315.519775 
	C843.506042,1318.081055 842.756592,1320.639526 841.887085,1323.153687 
	C828.240723,1362.613159 800.194153,1379.504517 757.832153,1377.346436 
	C752.200134,1377.059570 746.544800,1376.218262 741.016846,1375.071777 
	C714.030212,1369.474854 695.982971,1353.340210 685.933472,1327.880859 
	C677.612488,1306.800293 675.088013,1284.648804 674.432556,1262.298340 
	C673.827148,1241.654907 674.693359,1220.967285 674.036255,1200.326904 
	C673.646484,1188.083984 672.074890,1175.811768 670.103882,1163.704224 
	C667.918945,1150.281982 658.729919,1143.120728 645.937134,1140.247925 
	C641.725891,1139.302124 637.401978,1138.367920 633.118958,1138.317139 
	C615.157227,1138.103638 597.191467,1138.226929 578.577759,1138.226929 
	C578.273743,1140.454468 577.719543,1142.633545 577.716797,1144.813354 
	C577.667236,1184.135010 577.593140,1223.457153 577.779968,1262.777832 
	C577.809753,1269.053345 578.903259,1275.347656 579.809326,1281.589111 
	C581.002258,1289.806152 585.916992,1294.776123 594.064819,1296.138672 
	C599.621460,1297.067749 605.258789,1297.714966 610.884033,1297.981079 
	C617.474121,1298.292725 624.090210,1298.053955 631.310181,1298.053955 
	C631.310181,1319.627808 631.310181,1340.421997 631.310181,1361.871338 
	C560.412354,1361.871338 489.636047,1361.871338 418.257324,1361.871338 
	C418.257324,1341.034058 418.257324,1320.205444 418.257324,1298.057495 
	C424.093414,1298.057495 429.975281,1298.287109 435.831360,1297.996704 
	C442.454315,1297.668335 449.094971,1297.156372 455.653564,1296.209229 
	C463.852142,1295.025391 468.827118,1290.012451 470.019287,1281.808350 
	C471.021698,1274.909790 472.105499,1267.935669 472.115082,1260.993530 
	C472.248169,1164.355591 472.236847,1067.717651 472.120697,971.079773 
	C472.113159,964.797119 471.400848,958.434631 470.251343,952.251587 
	C468.189026,941.159058 464.480011,937.441040 453.179199,935.979309 
	C444.631195,934.873657 435.930267,934.925720 427.293945,934.540466 
	C424.383301,934.410583 421.461945,934.519897 418.129517,934.519897 
	C418.129517,912.758545 418.129517,891.940430 418.129517,870.511169 
	C420.743103,870.344360 422.982239,870.077087 425.221405,870.076538 
	C507.197113,870.056458 589.173584,869.854614 671.148071,870.174683 
	C699.763916,870.286377 727.513000,875.152527 753.143311,890.755615 
M683.351013,1045.921387 
	C692.023193,1022.327087 691.643066,998.343994 686.203613,974.215393 
	C681.642395,953.982483 669.093140,941.703552 648.727417,937.531921 
	C645.478271,936.866455 642.209839,935.952271 638.927979,935.846558 
	C621.317078,935.279236 603.699768,934.900269 586.082947,934.542297 
	C583.519897,934.490295 580.947510,934.901428 578.400146,935.096680 
	C578.400146,981.408936 578.400146,1027.113403 578.400146,1073.355225 
	C593.721802,1073.355225 608.329468,1073.773438 622.898865,1073.207031 
	C632.493164,1072.833984 642.156860,1071.653931 651.566528,1069.739502 
	C665.101013,1066.985962 676.594482,1060.716431 683.351013,1045.921387 
z"/>
<path fill="#FEFEFD" opacity="1.000000" stroke="none" 
	d="
M1876.676392,647.999512 
	C1876.676392,609.438660 1876.676392,571.877869 1876.676392,534.600769 
	C1877.647583,534.198792 1877.940186,533.987976 1878.239258,533.978455 
	C1878.554199,533.968384 1879.012329,534.048096 1879.174072,534.263855 
	C1922.919556,592.612061 1966.644165,650.975830 2010.382812,709.329163 
	C2010.553467,709.556763 2010.916260,709.640137 2012.020874,710.250122 
	C2058.170654,652.354797 2104.422852,594.330872 2151.617920,535.124146 
	C2192.189941,592.839722 2232.311279,649.914368 2273.264648,708.172302 
	C2316.792480,650.973267 2359.818115,594.434204 2404.177979,536.141663 
	C2404.177979,637.798157 2404.177979,737.189270 2404.177979,837.126831 
	C2228.540283,837.126831 2053.172607,837.126831 1876.676392,837.126831 
	C1876.676392,774.097534 1876.676392,711.548523 1876.676392,647.999512 
z"/>
<path fill="#FDFEFD" opacity="1.000000" stroke="none" 
	d="
M2444.146973,1088.605835 
	C2448.616699,1047.677002 2472.731201,1023.973572 2509.273682,1012.471924 
	C2548.992920,999.970398 2589.381104,1000.188232 2629.332031,1012.359436 
	C2653.413818,1019.695984 2671.745605,1034.322998 2682.143311,1057.782104 
	C2688.062500,1071.137451 2689.454102,1085.498413 2689.683350,1099.798706 
	C2690.207520,1132.450317 2690.052002,1165.113281 2690.122803,1197.771606 
	C2690.169678,1219.433838 2689.991455,1241.097900 2690.212158,1262.757935 
	C2690.282959,1269.718872 2691.188477,1276.683105 2691.960449,1283.618286 
	C2692.212646,1285.886353 2693.020020,1288.171387 2693.972412,1290.267456 
	C2696.514404,1295.863159 2700.451904,1298.362915 2705.585205,1297.964233 
	C2710.940186,1297.548462 2714.349365,1294.305054 2715.585205,1289.524292 
	C2716.988770,1284.093140 2717.915283,1278.414917 2718.086426,1272.814697 
	C2718.452881,1260.843018 2718.198730,1248.852417 2718.198730,1235.687012 
	C2729.433350,1234.636719 2740.204346,1235.415039 2752.131592,1235.137451 
	C2752.131592,1245.154541 2752.070068,1254.364014 2752.145020,1263.572266 
	C2752.283447,1280.592896 2751.693359,1297.560913 2748.023193,1314.252930 
	C2746.739258,1320.090698 2745.225098,1325.923096 2743.236572,1331.553345 
	C2733.520020,1359.065308 2713.445801,1373.210083 2684.853760,1375.638428 
	C2677.595703,1376.254761 2670.123047,1376.220459 2662.917725,1375.243286 
	C2638.349609,1371.911011 2621.582520,1358.179321 2612.039551,1335.435669 
	C2611.268066,1333.596680 2610.651611,1331.692871 2609.899414,1329.845215 
	C2609.160889,1328.030762 2608.341064,1326.249390 2607.296875,1323.858032 
	C2603.025879,1329.234985 2599.294678,1334.314209 2595.175049,1339.056152 
	C2569.227783,1368.923462 2536.633057,1381.108643 2497.648682,1374.118164 
	C2467.120361,1368.643799 2448.346436,1348.759888 2438.437256,1320.556641 
	C2429.030518,1293.783691 2429.128906,1266.219727 2436.372803,1238.865723 
	C2441.385254,1219.937622 2452.883057,1205.757446 2469.923340,1195.965210 
	C2487.091064,1186.099487 2505.636963,1179.823853 2524.428711,1173.992920 
	C2538.713379,1169.560547 2553.128174,1165.277344 2566.906250,1159.537842 
	C2595.175537,1147.762207 2606.191162,1126.705933 2601.241211,1096.317383 
	C2597.072510,1070.723755 2580.576904,1054.804199 2554.733643,1051.545898 
	C2540.579346,1049.761230 2526.789307,1050.873413 2513.921387,1057.608032 
	C2510.847412,1059.216797 2508.139160,1061.524048 2504.645020,1063.936523 
	C2533.656006,1075.234619 2544.251465,1103.341187 2530.847656,1130.331421 
	C2516.100830,1160.025513 2474.248535,1162.778076 2454.388184,1135.329224 
	C2447.961914,1126.447388 2444.803467,1116.348877 2444.135254,1105.506470 
	C2443.807861,1100.198608 2444.089600,1094.853271 2444.146973,1088.605835 
M2570.776855,1300.352051 
	C2582.444336,1297.319092 2590.006348,1289.305054 2593.733643,1278.556763 
	C2596.958252,1269.257080 2599.220459,1259.283203 2599.799805,1249.482788 
	C2600.800049,1232.552002 2600.177979,1215.524780 2600.197266,1198.537964 
	C2600.199219,1197.024902 2599.915283,1195.511597 2599.593506,1192.288452 
	C2578.201416,1206.898193 2555.891602,1217.655640 2539.593750,1236.682861 
	C2536.167725,1240.682983 2532.903320,1245.162109 2530.901123,1249.976440 
	C2525.057373,1264.029541 2527.257324,1277.557983 2536.257812,1289.560669 
	C2544.491943,1300.541260 2556.020752,1303.505737 2570.776855,1300.352051 
z"/>
<path fill="#FEFEFD" opacity="1.000000" stroke="none" 
	d="
M983.634277,1372.486816 
	C953.462280,1366.322266 930.194763,1350.656738 911.566589,1327.595825 
	C891.380310,1302.606079 879.837830,1273.724243 874.825378,1242.360718 
	C867.644348,1197.428345 869.218201,1152.753784 882.011292,1108.827515 
	C887.448730,1090.157593 895.705994,1072.767700 907.170532,1056.979980 
	C933.259399,1021.053040 968.736389,1004.326660 1012.872620,1005.227295 
	C1029.992920,1005.576660 1046.701660,1008.099060 1062.608765,1014.655884 
	C1093.101929,1027.224976 1113.785645,1049.887573 1128.095215,1078.946899 
	C1139.411865,1101.928345 1145.377686,1126.468018 1147.783936,1151.796265 
	C1149.416138,1168.976807 1149.741821,1186.281494 1150.710083,1204.633667 
	C1089.543213,1204.633667 1029.713623,1204.633667 970.638733,1204.633667 
	C969.503662,1206.204712 968.786621,1206.734497 968.781250,1207.271729 
	C968.588379,1226.307251 969.819214,1245.207520 974.794556,1263.682861 
	C975.829224,1267.524780 977.224243,1271.300415 978.788025,1274.963745 
	C986.598877,1293.261841 999.465393,1305.102539 1020.210999,1305.889526 
	C1041.978149,1306.715454 1059.700928,1298.810669 1069.663452,1278.778687 
	C1074.599609,1268.853760 1076.912476,1257.624390 1080.760620,1245.925415 
	C1101.042847,1245.925415 1122.547485,1245.925415 1144.745361,1245.925415 
	C1144.531738,1248.053223 1144.515747,1250.251709 1144.067993,1252.358276 
	C1139.687744,1272.968872 1133.170776,1292.830811 1122.894775,1311.318970 
	C1097.220337,1357.511597 1056.983276,1377.049438 1005.261047,1375.189819 
	C998.308655,1374.939819 991.398132,1373.525635 983.634277,1372.486816 
M1028.601196,1071.915894 
	C1012.176270,1064.411621 993.324341,1067.848755 982.758728,1085.711670 
	C972.096191,1103.738403 970.247559,1123.725342 969.915466,1144.824463 
	C998.893616,1144.824463 1026.931885,1144.824463 1055.405396,1144.824463 
	C1056.310547,1131.139404 1054.700073,1118.317139 1051.714478,1105.742676 
	C1048.500610,1092.206177 1042.852295,1079.929810 1028.601196,1071.915894 
z"/>
<path fill="#FEFEFD" opacity="1.000000" stroke="none" 
	d="
M3234.574707,1302.555420 
	C3220.830566,1330.741577 3201.838135,1352.986328 3173.025146,1364.955811 
	C3125.769043,1384.587036 3056.990479,1380.809814 3014.864990,1322.764282 
	C2995.597900,1296.215942 2984.843262,1266.411865 2980.666260,1234.288818 
	C2975.336182,1193.297729 2976.995605,1152.524414 2988.069336,1112.452881 
	C2993.521240,1092.723999 3001.889160,1074.303955 3013.862061,1057.618896 
	C3039.987549,1021.210815 3075.694580,1004.297485 3120.246338,1005.239197 
	C3137.385254,1005.601562 3154.073730,1008.192139 3169.981689,1014.745850 
	C3196.280029,1025.579834 3215.537842,1044.329346 3229.729736,1068.600708 
	C3243.040527,1091.365601 3250.500244,1116.198853 3253.663818,1142.153564 
	C3255.834717,1159.962158 3256.206299,1177.992310 3257.280273,1195.929565 
	C3257.434326,1198.502563 3257.016113,1201.109741 3256.801514,1204.737549 
	C3196.595215,1204.737549 3136.791992,1204.737549 3076.081543,1204.737549 
	C3075.587402,1230.541260 3077.101318,1254.836670 3087.295410,1277.940674 
	C3104.918701,1317.882690 3156.499512,1311.027344 3173.634277,1284.643311 
	C3179.947021,1274.923096 3183.340088,1264.296387 3185.343506,1253.068970 
	C3185.741211,1250.839478 3186.104004,1248.603882 3186.579102,1245.804443 
	C3208.396240,1245.804443 3229.902588,1245.804443 3252.316895,1245.804443 
	C3249.128662,1265.580444 3243.157471,1284.069336 3234.574707,1302.555420 
M3161.744629,1121.540649 
	C3159.293213,1111.900879 3157.295166,1102.114502 3154.244873,1092.668213 
	C3151.857178,1085.274658 3146.931885,1079.219604 3140.479004,1074.692993 
	C3124.124268,1063.220825 3102.566650,1067.132568 3091.207764,1083.755127 
	C3082.277100,1096.823853 3079.409912,1111.870972 3078.017822,1127.236084 
	C3077.495117,1133.007446 3077.933105,1138.865845 3077.933105,1144.849854 
	C3106.431152,1144.849854 3134.225586,1144.849854 3161.899658,1144.849854 
	C3161.899658,1137.234009 3161.899658,1130.284180 3161.744629,1121.540649 
z"/>
<path fill="#FDFEFD" opacity="1.000000" stroke="none" 
	d="
M2872.132568,908.023804 
	C2872.132568,944.259338 2872.132568,979.500305 2872.132568,1015.677429 
	C2894.880859,1015.677429 2916.717285,1015.677429 2939.166992,1015.677429 
	C2939.166992,1035.780762 2939.166992,1054.955200 2939.166992,1075.303345 
	C2917.243408,1076.336426 2895.100830,1075.074463 2872.132080,1075.991455 
	C2872.132080,1079.605957 2872.132080,1082.518677 2872.132080,1085.431396 
	C2872.131836,1146.083496 2871.953369,1206.736816 2872.316162,1267.386719 
	C2872.373047,1276.898071 2873.936035,1286.663452 2876.524902,1295.824707 
	C2879.267578,1305.530029 2886.409424,1309.332520 2895.501221,1308.526123 
	C2904.469727,1307.730469 2909.498779,1301.868652 2911.427979,1294.112427 
	C2913.742920,1284.806152 2915.279053,1275.142090 2915.715332,1265.567627 
	C2916.564209,1246.939697 2916.396973,1228.265991 2916.686523,1209.611816 
	C2916.736816,1206.362915 2916.962891,1203.116821 2917.133545,1199.293091 
	C2932.216309,1199.293091 2946.674561,1199.293091 2960.949951,1199.293091 
	C2961.420166,1200.324585 2961.920410,1200.908081 2961.917725,1201.489258 
	C2961.765869,1234.094727 2964.441406,1266.869385 2957.876221,1299.136230 
	C2955.572021,1310.461182 2952.171143,1321.794800 2947.541992,1332.367554 
	C2937.387695,1355.559570 2919.310791,1369.857666 2894.450928,1375.076904 
	C2874.872559,1379.187378 2855.404053,1378.562866 2836.234131,1372.472290 
	C2817.384277,1366.483643 2803.945557,1354.378662 2795.633789,1336.494751 
	C2787.080078,1318.089355 2783.656494,1298.410278 2782.207764,1278.440186 
	C2780.955322,1261.180664 2780.488770,1243.836304 2780.401123,1226.525757 
	C2780.166260,1180.204590 2780.321289,1133.881714 2780.321533,1087.559448 
	C2780.321533,1083.956665 2780.321777,1080.353760 2780.321777,1075.785278 
	C2767.808838,1075.785278 2755.992432,1075.785278 2743.678711,1075.785278 
	C2743.678711,1056.920044 2743.678711,1039.045776 2743.678711,1020.758728 
	C2773.057373,1014.837524 2788.882812,994.285461 2799.595459,968.593811 
	C2809.695801,944.372070 2813.845215,918.767578 2816.094482,892.791687 
	C2816.402588,889.231812 2816.705566,885.671448 2817.048096,881.676758 
	C2835.692139,881.676758 2853.536133,881.676758 2872.132568,881.676758 
	C2872.132568,890.456238 2872.132568,898.742798 2872.132568,908.023804 
z"/>
<path fill="#FCFDFB" opacity="1.000000" stroke="none" 
	d="
M1419.494873,1123.471680 
	C1434.956909,1108.902588 1452.655396,1104.235718 1472.610962,1108.014404 
	C1492.160645,1111.716187 1505.384766,1124.546143 1517.451904,1141.289551 
	C1518.090820,1138.636353 1518.587158,1137.530151 1518.589844,1136.422607 
	C1518.640381,1115.758789 1518.883911,1095.091064 1518.560181,1074.432251 
	C1518.279785,1056.545532 1515.129150,1053.775024 1497.235107,1053.683594 
	C1494.253906,1053.668335 1491.272461,1053.681396 1487.478516,1053.681396 
	C1487.478516,1039.456665 1487.478516,1025.709229 1487.478516,1011.310974 
	C1519.824463,1011.310974 1551.984375,1011.310974 1585.328003,1011.310974 
	C1585.446777,1015.156677 1585.668457,1019.003113 1585.669312,1022.849548 
	C1585.688599,1111.505493 1585.676514,1200.161499 1585.701172,1288.817505 
	C1585.702637,1294.479736 1585.603638,1300.177246 1586.167236,1305.796509 
	C1587.155029,1315.648682 1591.099731,1319.306763 1600.889893,1319.942139 
	C1604.795410,1320.195557 1608.731323,1319.983765 1613.152588,1319.983765 
	C1613.152588,1334.474976 1613.152588,1347.957886 1613.152588,1361.986816 
	C1582.847534,1361.986816 1552.975464,1361.986816 1521.976685,1361.986816 
	C1521.976685,1352.779053 1521.976685,1343.391724 1521.976685,1334.004272 
	C1521.337280,1333.807251 1520.697876,1333.610107 1520.058472,1333.413086 
	C1518.132568,1336.269531 1516.190918,1339.115479 1514.283569,1341.984497 
	C1505.582397,1355.072266 1494.937622,1365.701660 1479.235352,1370.086304 
	C1452.541260,1377.540649 1424.261597,1367.392090 1407.848022,1344.254883 
	C1398.037231,1330.425171 1392.413818,1314.806763 1389.310791,1298.292236 
	C1381.460571,1256.514404 1381.264893,1214.814209 1392.160522,1173.504883 
	C1397.056030,1154.944214 1405.289917,1137.907837 1419.494873,1123.471680 
M1513.430176,1297.987915 
	C1515.156738,1282.474121 1517.753662,1266.996460 1518.401733,1251.437744 
	C1519.329590,1229.163940 1519.218262,1206.778809 1513.920654,1184.886719 
	C1512.526245,1179.124634 1510.587769,1173.282104 1507.728638,1168.125488 
	C1498.017700,1150.610718 1477.788940,1150.429321 1467.819458,1167.698486 
	C1465.195435,1172.243652 1463.020630,1177.344849 1462.008179,1182.461548 
	C1459.883179,1193.202148 1458.072632,1204.074463 1457.196899,1214.978271 
	C1455.192017,1239.941650 1455.536377,1264.927979 1460.347290,1289.586182 
	C1461.856689,1297.321899 1464.713013,1304.951904 1468.022095,1312.137939 
	C1471.844360,1320.438354 1478.373535,1326.158691 1488.232666,1325.956055 
	C1498.031372,1325.754761 1504.072876,1319.761353 1508.152588,1311.557617 
	C1510.065430,1307.710815 1511.320190,1303.536743 1513.430176,1297.987915 
z"/>
<path fill="#FEFEFE" opacity="1.000000" stroke="none" 
	d="
M1252.000000,1015.877991 
	C1273.561279,1015.877991 1294.122681,1015.877991 1315.674194,1015.877991 
	C1315.674194,1020.474915 1315.674316,1024.053589 1315.674316,1027.632324 
	C1315.674316,1107.928955 1315.651855,1188.225708 1315.717407,1268.522339 
	C1315.722534,1274.834839 1315.772095,1281.241333 1316.801880,1287.437866 
	C1318.509644,1297.713623 1322.164307,1301.043457 1332.579224,1302.343384 
	C1339.457764,1303.202148 1346.437622,1303.250488 1353.843994,1303.689575 
	C1353.843994,1323.162476 1353.843994,1342.313477 1353.843994,1361.992432 
	C1295.362061,1361.992432 1237.227295,1361.992432 1178.481445,1361.992432 
	C1178.481445,1342.668213 1178.481445,1323.497925 1178.481445,1303.168335 
	C1181.750000,1303.168335 1184.993896,1303.245605 1188.232666,1303.149780 
	C1192.884399,1303.012329 1197.571045,1303.055664 1202.174805,1302.479492 
	C1214.369629,1300.953613 1218.565430,1296.854614 1219.908936,1284.845337 
	C1220.684937,1277.908447 1221.087280,1270.894287 1221.101685,1263.913574 
	C1221.200806,1215.935669 1221.216919,1167.957397 1221.093506,1119.979492 
	C1221.071289,1111.333374 1220.650146,1102.650635 1219.753906,1094.053467 
	C1218.546509,1082.469116 1214.981445,1078.910645 1203.470947,1077.687134 
	C1195.256348,1076.813843 1186.957153,1076.736694 1178.297729,1076.283447 
	C1178.297729,1056.326538 1178.297729,1036.784424 1178.297729,1015.877991 
	C1202.640137,1015.877991 1226.820068,1015.877991 1252.000000,1015.877991 
z"/>
<path fill="#FDFEFC" opacity="1.000000" stroke="none" 
	d="
M1630.062988,1259.557983 
	C1628.532104,1231.520630 1629.170166,1204.649536 1638.044067,1178.595581 
	C1642.373047,1165.885742 1648.326538,1154.041748 1656.560913,1143.399292 
	C1674.561401,1120.134644 1698.486084,1108.016968 1727.625854,1105.969604 
	C1740.970825,1105.032227 1754.277222,1105.476562 1767.336426,1108.804688 
	C1794.326416,1115.682739 1814.210205,1131.838257 1828.145386,1155.650024 
	C1837.185059,1171.096558 1842.334229,1187.895752 1844.909180,1205.512451 
	C1849.246216,1235.184937 1848.464844,1264.621216 1840.152100,1293.602783 
	C1838.597656,1299.022217 1836.627686,1304.366943 1834.355469,1309.528809 
	C1813.541504,1356.814575 1773.055298,1376.273438 1725.370361,1371.017700 
	C1677.173584,1365.705200 1645.779663,1335.655640 1634.297974,1286.114624 
	C1632.349487,1277.707642 1631.485718,1269.049316 1630.062988,1259.557983 
M1709.924561,1308.555420 
	C1716.471558,1322.414917 1727.722656,1327.671631 1742.515869,1326.155151 
	C1757.040283,1324.666016 1764.784302,1315.437012 1768.815430,1302.352051 
	C1770.180298,1297.921509 1771.305542,1293.365601 1771.985718,1288.784546 
	C1776.408813,1258.996094 1776.244507,1229.070923 1773.358521,1199.206665 
	C1772.409668,1189.388794 1770.044556,1179.485229 1766.770508,1170.167969 
	C1762.198364,1157.156982 1751.771362,1150.942871 1738.141479,1150.946777 
	C1724.494385,1150.950562 1714.406616,1157.300171 1709.530762,1170.237427 
	C1706.974487,1177.019775 1705.113159,1184.217163 1704.075562,1191.391479 
	C1700.103027,1218.858154 1700.551880,1246.512939 1702.643677,1274.060181 
	C1703.489014,1285.192383 1707.029053,1296.119995 1709.924561,1308.555420 
z"/>
<path fill="#FDFEFC" opacity="1.000000" stroke="none" 
	d="
M2205.846191,479.287170 
	C2202.233398,509.609192 2176.076660,530.210205 2145.703369,528.029907 
	C2117.871338,526.031982 2095.979492,502.415375 2095.874023,473.905579 
	C2095.765137,444.487244 2117.134033,420.345093 2145.089355,418.052765 
	C2181.471924,415.069427 2208.873291,444.044128 2205.846191,479.287170 
z"/>
<path fill="#FDFEFC" opacity="1.000000" stroke="none" 
	d="
M2383.948242,528.391357 
	C2357.362549,517.491943 2342.257568,487.819214 2352.139160,458.585449 
	C2360.512695,433.813782 2387.400879,418.189026 2413.239990,422.673523 
	C2440.093750,427.334106 2459.981934,448.698151 2459.399658,477.137146 
	C2458.570801,517.597168 2420.144043,542.506226 2383.948242,528.391357 
z"/>
<path fill="#FDFEFC" opacity="1.000000" stroke="none" 
	d="
M1827.930176,462.231506 
	C1834.188110,433.182648 1863.886963,411.642242 1897.622070,421.916077 
	C1924.795532,430.191589 1938.275269,456.626465 1935.291504,479.823364 
	C1931.669678,507.980591 1909.211304,527.921570 1881.687988,528.120911 
	C1854.596313,528.317078 1831.724365,509.412231 1827.724609,482.857086 
	C1826.752808,476.404358 1827.727051,469.658508 1827.930176,462.231506 
z"/>
<path fill="#FDFDFC" opacity="1.000000" stroke="none" 
	d="
M1308.073975,939.823792 
	C1305.755615,953.423401 1300.590576,964.773132 1291.692261,974.267639 
	C1275.186279,991.879578 1249.872681,992.019226 1233.452026,974.314209 
	C1218.340088,958.020020 1214.619263,938.133057 1216.862427,916.811218 
	C1218.474854,901.484619 1224.393188,887.958313 1235.635620,877.072876 
	C1251.544189,861.669617 1274.434326,861.616089 1290.186646,877.220703 
	C1304.855713,891.752197 1309.670166,909.983032 1309.051636,930.044678 
	C1308.959595,933.028870 1308.475464,936.000916 1308.073975,939.823792 
z"/>
<path fill="#417903" opacity="1.000000" stroke="none" 
	d="
M682.982422,1046.586670 
	C676.594482,1060.716431 665.101013,1066.985962 651.566528,1069.739502 
	C642.156860,1071.653931 632.493164,1072.833984 622.898865,1073.207031 
	C608.329468,1073.773438 593.721802,1073.355225 578.400146,1073.355225 
	C578.400146,1027.113403 578.400146,981.408936 578.400146,935.096680 
	C580.947510,934.901428 583.519897,934.490295 586.082947,934.542297 
	C603.699768,934.900269 621.317078,935.279236 638.927979,935.846558 
	C642.209839,935.952271 645.478271,936.866455 648.727417,937.531921 
	C669.093140,941.703552 681.642395,953.982483 686.203613,974.215393 
	C691.643066,998.343994 692.023193,1022.327087 682.982422,1046.586670 
z"/>
<path fill="#427A04" opacity="1.000000" stroke="none" 
	d="
M2569.993652,1300.551270 
	C2556.020752,1303.505737 2544.491943,1300.541260 2536.257812,1289.560669 
	C2527.257324,1277.557983 2525.057373,1264.029541 2530.901123,1249.976440 
	C2532.903320,1245.162109 2536.167725,1240.682983 2539.593750,1236.682861 
	C2555.891602,1217.655640 2578.201416,1206.898193 2599.593506,1192.288452 
	C2599.915283,1195.511597 2600.199219,1197.024902 2600.197266,1198.537964 
	C2600.177979,1215.524780 2600.800049,1232.552002 2599.799805,1249.482788 
	C2599.220459,1259.283203 2596.958252,1269.257080 2593.733643,1278.556763 
	C2590.006348,1289.305054 2582.444336,1297.319092 2569.993652,1300.551270 
z"/>
<path fill="#447C07" opacity="1.000000" stroke="none" 
	d="
M1029.291260,1072.237915 
	C1042.852295,1079.929810 1048.500610,1092.206177 1051.714478,1105.742676 
	C1054.700073,1118.317139 1056.310547,1131.139404 1055.405396,1144.824463 
	C1026.931885,1144.824463 998.893616,1144.824463 969.915466,1144.824463 
	C970.247559,1123.725342 972.096191,1103.738403 982.758728,1085.711670 
	C993.324341,1067.848755 1012.176270,1064.411621 1029.291260,1072.237915 
z"/>
<path fill="#437B07" opacity="1.000000" stroke="none" 
	d="
M3161.822266,1122.437500 
	C3161.899658,1130.284180 3161.899658,1137.234009 3161.899658,1144.849854 
	C3134.225586,1144.849854 3106.431152,1144.849854 3077.933105,1144.849854 
	C3077.933105,1138.865845 3077.495117,1133.007446 3078.017822,1127.236084 
	C3079.409912,1111.870972 3082.277100,1096.823853 3091.207764,1083.755127 
	C3102.566650,1067.132568 3124.124268,1063.220825 3140.479004,1074.692993 
	C3146.931885,1079.219604 3151.857178,1085.274658 3154.244873,1092.668213 
	C3157.295166,1102.114502 3159.293213,1111.900879 3161.822266,1122.437500 
z"/>
<path fill="#427A04" opacity="1.000000" stroke="none" 
	d="
M1513.151611,1298.749512 
	C1511.320190,1303.536743 1510.065430,1307.710815 1508.152588,1311.557617 
	C1504.072876,1319.761353 1498.031372,1325.754761 1488.232666,1325.956055 
	C1478.373535,1326.158691 1471.844360,1320.438354 1468.022095,1312.137939 
	C1464.713013,1304.951904 1461.856689,1297.321899 1460.347290,1289.586182 
	C1455.536377,1264.927979 1455.192017,1239.941650 1457.196899,1214.978271 
	C1458.072632,1204.074463 1459.883179,1193.202148 1462.008179,1182.461548 
	C1463.020630,1177.344849 1465.195435,1172.243652 1467.819458,1167.698486 
	C1477.788940,1150.429321 1498.017700,1150.610718 1507.728638,1168.125488 
	C1510.587769,1173.282104 1512.526245,1179.124634 1513.920654,1184.886719 
	C1519.218262,1206.778809 1519.329590,1229.163940 1518.401733,1251.437744 
	C1517.753662,1266.996460 1515.156738,1282.474121 1513.151611,1298.749512 
z"/>
<path fill="#417A04" opacity="1.000000" stroke="none" 
	d="
M1709.633789,1307.848022 
	C1707.029053,1296.119995 1703.489014,1285.192383 1702.643677,1274.060181 
	C1700.551880,1246.512939 1700.103027,1218.858154 1704.075562,1191.391479 
	C1705.113159,1184.217163 1706.974487,1177.019775 1709.530762,1170.237427 
	C1714.406616,1157.300171 1724.494385,1150.950562 1738.141479,1150.946777 
	C1751.771362,1150.942871 1762.198364,1157.156982 1766.770508,1170.167969 
	C1770.044556,1179.485229 1772.409668,1189.388794 1773.358521,1199.206665 
	C1776.244507,1229.070923 1776.408813,1258.996094 1771.985718,1288.784546 
	C1771.305542,1293.365601 1770.180298,1297.921509 1768.815430,1302.352051 
	C1764.784302,1315.437012 1757.040283,1324.666016 1742.515869,1326.155151 
	C1727.722656,1327.671631 1716.471558,1322.414917 1709.633789,1307.848022 
z"/>
</svg>